<svg width="270" height="270" viewBox="0 0 270 270" xmlns="http://www.w3.org/2000/svg">
<g clip-path="url(#clip0)" fill="#9C9FA7">
<path d="M228.783 60.9183C228.731 60.8884 228.679 60.8585 228.668 60.8176C228.606 60.7469 228.502 60.6871 228.398 60.6273C228.347 60.5974 228.284 60.5267 228.191 60.5077L228.139 60.4778C228.087 60.4479 227.995 60.429 227.943 60.3991C227.891 60.3692 227.787 60.3094 227.695 60.2905C227.457 60.2227 227.22 60.1549 226.983 60.0871C226.89 60.0682 226.798 60.0492 226.716 60.0712C226.541 60.0741 226.356 60.0362 226.141 60.0502C226.048 60.0312 225.966 60.0531 225.884 60.075C225.71 60.078 225.505 60.1328 225.29 60.1467C225.086 60.2015 224.87 60.2154 224.625 60.2811C198.174 67.3685 171.315 74.5655 145.314 81.5324L120.131 88.2802C99.0361 93.9326 77.9002 99.5959 56.8052 105.248C56.1919 105.413 55.475 105.517 54.6188 105.265L53.5661 104.934L59.5963 102.092C63.2123 100.379 66.8282 98.6659 70.4441 96.9527C86.7118 89.3101 103.02 81.6565 119.288 74.0138L212.504 30.2536C213.044 29.9777 213.635 29.7316 214.215 29.4448C216.18 28.4368 216.503 27.5182 215.64 25.6042C211.856 17.2047 208.714 10.3845 205.673 4.10636C205.449 3.59721 204.827 3.23846 204.154 2.84981C204.05 2.79002 203.998 2.76012 203.894 2.70033C203.832 2.62958 203.739 2.61064 203.635 2.55085L203.583 2.52095C203.532 2.49106 203.469 2.42031 203.376 2.40137L203.324 2.37147L201.485 2.86441C200.008 3.56662 198.501 4.32064 197.035 5.06371C193.817 6.62652 190.487 8.26304 187.217 9.79595C163.361 21.0044 139.158 32.3932 115.689 43.4105L115.067 43.7083C101.021 50.3181 86.9627 56.887 72.9158 63.4967C62.9945 68.1692 53.0213 72.8117 43.1 77.4842L41.1135 78.4105C31.7127 82.8997 21.7913 87.5722 12.0634 92.149C10.1178 93.0643 9.71548 94.1792 10.5898 96.1341C11.762 98.7097 12.9859 101.315 14.158 103.891C16.0542 108.024 18.024 112.268 19.942 116.483C20.5704 117.847 21.0163 119.348 21.3556 120.614C31.8527 159.789 42.3497 198.965 52.8468 238.14L59.7974 264.08C60.8372 267.961 61.3037 268.23 65.2283 267.179L89.9618 260.551C135.095 248.458 181.414 236.047 227.529 223.69C232.803 222.277 238.077 220.864 243.35 219.451C250.668 217.49 257.986 215.529 265.304 213.569C265.672 213.47 266.04 213.371 266.397 213.232C266.479 213.21 266.56 213.188 266.601 213.177C267.193 212.931 267.732 212.655 268.105 212.249C268.176 212.186 268.206 212.134 268.277 212.072C268.307 212.02 268.348 212.009 268.377 211.957C268.407 211.905 268.448 211.894 268.478 211.842C268.538 211.739 268.568 211.687 268.628 211.583C268.688 211.48 268.707 211.387 268.767 211.284C268.826 211.18 268.845 211.087 268.864 210.995C268.883 210.902 268.932 210.758 268.951 210.665L228.783 60.9183C228.835 60.9482 228.794 60.9591 228.783 60.9183ZM202.57 71.182C206.923 69.9282 211.267 68.8079 215.887 67.57C217.195 67.2195 218.544 66.858 219.893 66.4965L220.793 66.2555L220.406 67.1033C219.155 69.6279 217.944 72.1414 216.712 74.5733C213.762 80.5737 210.941 86.2334 208.338 92.0536C206.744 95.5893 204.753 97.48 201.605 98.3235C201.196 98.433 200.777 98.5017 200.316 98.5814C197.511 99.0702 194.783 99.845 191.902 100.704C190.646 101.085 189.297 101.446 187.989 101.797L187.253 101.994L187.456 101.283C187.524 101.046 187.603 100.849 187.641 100.664C187.717 100.293 187.815 100.005 187.954 99.7046C191.844 91.6569 196.442 82.325 200.999 73.004C201.336 72.3007 201.875 71.3682 202.57 71.182ZM177.703 77.8013C181.933 76.5804 186.226 75.4302 190.733 74.2661C192.083 73.9046 193.473 73.5321 194.903 73.1487L195.803 72.9077L185.111 94.8184C184.774 95.5217 184.466 96.1733 184.129 96.8766C183.285 98.635 182.412 100.445 181.476 102.185C181.068 102.951 180.281 103.775 179.474 104.035C176.91 104.766 174.334 105.456 171.718 106.157C170.123 106.584 168.57 107 167.016 107.416C165.953 107.701 164.89 107.986 163.827 108.271C163.623 108.326 163.449 108.329 163.192 108.353C163.018 108.356 162.854 108.4 162.639 108.414L161.87 108.489L170.34 91.2018C172.176 87.426 174.072 83.5466 175.979 79.708C176.257 79.1083 176.856 78.0722 177.703 77.8013ZM151.125 85.886C151.433 85.2345 152.111 84.6587 152.765 84.4834C157.006 83.3033 161.258 82.1641 165.755 80.9591L170.374 79.7213L170.1 80.4954C169.961 80.7952 169.904 81.0732 169.795 81.3213C169.619 81.8065 169.491 82.1472 169.333 82.5397L167.298 86.719C163.794 93.9189 160.181 101.367 156.524 108.652C156.048 109.655 154.893 110.577 153.841 110.903C151.277 111.634 148.712 112.365 146.096 113.066C144.747 113.427 143.397 113.789 142.008 114.161C140.577 114.545 139.105 114.939 137.551 115.355L136.652 115.596L139.59 109.555C143.529 101.363 147.333 93.6448 151.125 85.886ZM125.809 93.2824C126.326 92.2682 127.429 91.3159 128.492 91.0311C132.354 89.9087 136.238 88.8681 140.326 87.7726C141.757 87.3892 143.188 87.0058 144.66 86.6115L145.477 86.3924L145.121 87.1884C144.952 87.5401 144.854 87.829 144.716 88.1289C144.509 88.6659 144.31 89.0694 144.112 89.4728L142.811 92.1418C139.079 99.797 135.226 107.659 131.393 115.429C131.194 115.833 130.487 117.117 129.517 117.421C126.625 118.239 123.692 119.069 120.708 119.868C119.4 120.219 118.133 120.559 116.783 120.92C115.434 121.282 114.044 121.654 112.613 122.037L111.796 122.256L112.152 121.46C112.31 121.068 112.449 120.768 112.546 120.479C112.764 119.983 112.922 119.59 113.09 119.239L115.444 114.449C118.787 107.467 122.302 100.308 125.809 93.2824ZM102.481 97.9571C106.71 96.7362 110.973 95.6378 115.429 94.4438C116.737 94.0932 118.086 93.7318 119.436 93.3703L120.212 93.1621L119.938 93.9362C119.799 94.2361 119.742 94.5141 119.633 94.7621C119.457 95.2473 119.34 95.6289 119.171 95.9806L117.533 99.3529C113.85 106.864 110.068 114.663 106.284 122.289C106.025 122.796 105.622 123.254 105.115 123.652C104.709 123.936 104.293 124.179 103.884 124.289C102.709 124.647 101.483 124.976 100.297 125.294C99.1115 125.611 97.8851 125.94 96.6995 126.258C95.2687 126.641 93.7969 127.036 92.4069 127.408C91.3849 127.682 90.3628 127.956 89.2999 128.24C88.9729 128.328 88.6757 128.364 88.256 128.433C88.0406 128.447 87.8362 128.501 87.5391 128.537L86.7813 128.653L87.0778 127.96C87.1756 127.671 87.2954 127.464 87.3633 127.227C87.5101 126.794 87.6488 126.494 87.8175 126.142L88.8894 123.928C92.7308 116.025 96.7519 107.811 100.694 99.7931C101.075 99.2532 101.674 98.2171 102.481 97.9571ZM77.5835 104.628C81.8243 103.448 86.076 102.309 90.573 101.104L95.1927 99.8661L94.9181 100.64C94.8202 100.929 94.7224 101.218 94.6136 101.466C94.4369 101.951 94.32 102.333 94.1514 102.685L92.8509 105.354C89.0584 113.112 85.1681 121.16 81.2339 129.044C80.8666 129.8 79.9679 130.697 79.0386 130.99C76.5148 131.71 73.9502 132.441 71.4156 133.12C69.9438 133.514 68.4312 133.92 67.0003 134.303C65.9374 134.588 64.9154 134.862 63.8524 135.147C63.6071 135.212 63.3918 135.226 63.0538 135.273C62.8793 135.276 62.6749 135.331 62.4187 135.356L61.6609 135.471L64.5502 129.574C68.4814 121.516 72.2141 113.86 76.0474 106.091C76.2921 105.368 76.9703 104.793 77.5835 104.628ZM56.7119 110.133C59.5466 109.593 62.3565 108.796 65.2891 107.966C66.5863 107.575 67.9354 107.213 69.3254 106.841L70.1022 106.633L69.8276 107.407C69.7298 107.696 69.621 107.944 69.553 108.181C69.4063 108.614 69.2485 109.007 69.0908 109.4C64.912 118.006 60.5836 126.872 56.2033 135.708C55.9748 136.163 55.3162 137.303 54.4686 137.573C51.4543 138.425 48.429 139.236 45.322 140.068C44.0547 140.408 42.7465 140.758 41.4383 141.109C40.0892 141.47 38.6992 141.843 37.3092 142.215L36.4098 142.456L36.7961 141.608C38.0366 139.043 39.2881 136.518 40.5097 134.046C43.4888 127.993 46.3401 122.282 48.9731 116.41C50.646 112.678 52.945 110.792 56.7119 110.133ZM202.452 7.94675L210.151 24.5792L184.209 16.5566L202.452 7.94675ZM165.282 25.3935C169.285 23.489 173.094 21.6802 176.873 19.9232C177.413 19.6473 178.233 19.6025 178.812 19.7979C185.88 21.9758 192.856 24.1347 200.265 26.4401L206.044 28.2193L205.076 28.6974C203.681 29.3777 202.275 30.0171 200.91 30.6456C197.64 32.1785 194.564 33.6158 191.509 35.1348C191.011 35.3998 190.531 35.5721 190.04 35.7035C188.732 36.0541 187.437 35.9632 185.858 35.4669C180.769 33.8093 175.558 32.1847 170.502 30.6497C168.449 30.0178 166.343 29.356 164.29 28.724C163.856 28.5775 163.423 28.431 162.845 28.2356C162.556 28.138 162.215 28.0104 161.781 27.8639L160.81 27.5111L165.282 25.3935ZM138.624 37.9217C139.673 37.4217 140.733 36.9625 141.711 36.5253C144.025 35.5113 146.216 34.5302 148.248 33.2851C152.201 30.8685 156.119 30.607 160.995 32.4528C165.045 33.9946 169.326 35.2555 173.463 36.4676C175.279 37.0317 177.177 37.574 179.034 38.1272C179.468 38.2737 179.902 38.4202 180.439 38.6265C180.728 38.7242 181.069 38.8517 181.462 39.0092L182.433 39.362L178.073 41.4059C174.029 43.3213 170.168 45.1002 166.307 46.8792C166.184 46.912 166.072 46.9857 165.95 47.0186C165.459 47.1501 164.843 47.14 164.368 47.0044C156.392 44.5445 148.312 42.0248 140.52 39.6028L139.282 39.234C139.138 39.1851 139.023 39.0845 138.857 38.9539C138.794 38.8832 138.679 38.7825 138.565 38.6819L138.055 38.2494L138.624 37.9217ZM114.83 49.201C115.135 49.0316 115.4 48.8733 115.634 48.7667C116.092 48.5127 116.427 48.2915 116.825 48.1411C121.378 46.0016 125.504 44.0643 129.722 42.146C130.507 41.8043 131.131 41.6809 131.605 41.8164C138.755 43.9724 145.783 46.1612 153.285 48.4856L159.064 50.2647L158.096 50.7428C156.854 51.3385 155.682 51.8713 154.499 52.3634C151.992 53.4729 149.649 54.5387 147.453 55.8277C146.355 56.4721 145.254 56.9423 144.15 57.238C141.616 57.9172 138.974 57.7056 135.957 56.5874C131.248 54.8721 126.492 53.4757 121.477 51.9297C119.331 51.2789 117.144 50.6389 114.946 49.9582L113.997 49.6871L114.83 49.201ZM91.614 60.019C92.704 59.508 93.7939 58.9971 94.854 58.5379C97.2792 57.4502 99.5518 56.4472 101.696 55.1284C105.355 52.922 109.016 52.6853 113.592 54.3926C117.776 55.9424 122.15 57.2223 126.35 58.5051C128.207 59.0582 130.156 59.6304 132.024 60.2244C132.458 60.3709 132.892 60.5174 133.429 60.7238C133.718 60.8214 134.018 60.96 134.4 61.0766L135.371 61.4294L131.011 63.4733C126.926 65.3996 123.076 67.2194 119.174 69.0093C119.092 69.0312 118.98 69.1049 118.899 69.1268C118.367 69.2692 117.688 69.1884 117.255 69.0419C108.711 66.4275 100.053 63.7124 92.4059 61.3392C92.2205 61.3013 92.0541 61.1708 91.8876 61.0403C91.784 60.9805 91.6694 60.8798 91.5139 60.7901L90.9219 60.3796L91.614 60.019ZM67.7575 71.2275C68.8883 70.7056 69.9783 70.1946 71.0383 69.7354C73.2701 68.7434 75.3901 67.825 77.3 66.6128C81.5774 63.9342 85.8436 63.6668 91.0308 65.6919C94.9472 67.2258 99.084 68.4378 103.035 69.612C104.8 70.1462 106.646 70.6586 108.421 71.2337C108.855 71.3802 109.289 71.5267 109.826 71.733C110.115 71.8307 110.456 71.9583 110.889 72.1048L111.86 72.4576L110.923 72.8839C109.558 73.5124 108.274 74.119 106.991 74.7256C104.067 76.0782 101.255 77.3571 98.5792 78.8184C97.8871 79.179 97.214 79.4469 96.519 79.6331C94.7611 80.1041 93.0135 79.9594 90.8973 79.2568C85.6012 77.4797 80.2563 75.847 74.6222 74.1167C72.3833 73.4469 70.0926 72.7472 67.791 72.0066L66.7383 71.6757L67.7575 71.2275ZM47.6695 80.6381C51.795 78.7008 55.7161 76.8183 59.6591 75.0174C60.2095 74.7824 60.9293 74.8522 61.4038 74.9878C68.4723 77.1656 75.4999 79.3544 82.9501 81.6489L88.636 83.4091L87.6687 83.8872C86.4261 84.4829 85.1726 85.0377 83.96 85.5815C81.3414 86.7648 78.8753 87.8634 76.5267 89.237C75.4995 89.8188 74.5212 90.256 73.5401 90.5189C71.2507 91.1323 68.876 90.9368 66.056 89.8972C61.6462 88.3205 57.0648 86.9211 52.6389 85.6114C50.73 85.0283 48.7283 84.4262 46.7785 83.8541C46.3449 83.7076 45.9113 83.5611 45.374 83.3548C45.085 83.2571 44.7959 83.1594 44.4141 83.0428L43.4432 82.69L47.6695 80.6381ZM21.0417 93.1146L24.546 91.4751C28.4072 89.6962 32.3801 87.8435 36.3231 86.0427C36.9443 85.7449 37.8306 85.9452 38.2642 86.0917C46.1889 88.5218 54.1246 90.9927 62.9275 93.7566C63.1129 93.7945 63.2276 93.8951 63.4458 94.0555C63.5495 94.1153 63.6641 94.216 63.8305 94.3465L64.4634 94.7461L60.7657 96.4812C56.5584 98.4404 52.5556 100.345 48.5009 102.219C48.4191 102.241 48.3782 102.252 48.2965 102.274C47.8059 102.406 47.2496 102.292 46.9606 102.194C39.8512 100.027 32.7718 97.8087 25.6515 95.601L21.2555 94.2394L21.0417 93.1146ZM23.9413 113.748L16.4254 97.6353L41.6859 105.403L23.9413 113.748ZM25.7892 118.682L45.3307 113.446L31.8094 141.149L25.7892 118.682ZM263.413 209.128L64.4003 262.453L33.7629 148.113L232.776 94.7876L263.413 209.128ZM231.525 89.9563L211.861 95.2253L225.472 67.366L231.525 89.9563Z" fill="#9C9FA7"/>
<path d="M205.896 94.5477C206.056 94.3295 206.217 94.1113 206.366 93.8523C206.217 94.1113 206.056 94.3295 205.896 94.5477ZM227.035 60.1177C227.261 60.1446 227.54 60.2015 227.747 60.321C227.54 60.2015 227.302 60.1337 227.035 60.1177ZM205.896 94.5477C206.056 94.3295 206.217 94.1113 206.366 93.8523C206.217 94.1113 206.056 94.3295 205.896 94.5477ZM205.896 94.5477C206.056 94.3295 206.217 94.1113 206.366 93.8523C206.217 94.1113 206.056 94.3295 205.896 94.5477ZM227.035 60.1177C227.261 60.1446 227.54 60.2015 227.747 60.321C227.54 60.2015 227.302 60.1337 227.035 60.1177ZM205.896 94.5477C206.056 94.3295 206.217 94.1113 206.366 93.8523C206.217 94.1113 206.056 94.3295 205.896 94.5477ZM227.035 60.1177C227.261 60.1446 227.54 60.2015 227.747 60.321C227.54 60.2015 227.302 60.1337 227.035 60.1177ZM205.896 94.5477C206.056 94.3295 206.217 94.1113 206.366 93.8523C206.217 94.1113 206.056 94.3295 205.896 94.5477ZM227.035 60.1177C227.261 60.1446 227.54 60.2015 227.747 60.321C227.54 60.2015 227.302 60.1337 227.035 60.1177ZM227.035 60.1177C227.261 60.1446 227.54 60.2015 227.747 60.321C227.54 60.2015 227.302 60.1337 227.035 60.1177ZM205.896 94.5477C206.056 94.3295 206.217 94.1113 206.366 93.8523C206.217 94.1113 206.056 94.3295 205.896 94.5477ZM227.035 60.1177C227.261 60.1446 227.54 60.2015 227.747 60.321C227.54 60.2015 227.302 60.1337 227.035 60.1177ZM205.896 94.5477C206.056 94.3295 206.217 94.1113 206.366 93.8523C206.217 94.1113 206.056 94.3295 205.896 94.5477ZM227.035 60.1177C227.261 60.1446 227.54 60.2015 227.747 60.321C227.54 60.2015 227.302 60.1337 227.035 60.1177ZM205.896 94.5477C206.056 94.3295 206.217 94.1113 206.366 93.8523C206.217 94.1113 206.056 94.3295 205.896 94.5477ZM205.896 94.5477C206.056 94.3295 206.217 94.1113 206.366 93.8523C206.217 94.1113 206.056 94.3295 205.896 94.5477ZM227.035 60.1177C227.261 60.1446 227.54 60.2015 227.747 60.321C227.54 60.2015 227.302 60.1337 227.035 60.1177ZM205.896 94.5477C206.056 94.3295 206.217 94.1113 206.366 93.8523C206.217 94.1113 206.056 94.3295 205.896 94.5477Z" fill="#9C9FA7"/>
<path d="M86.8334 128.683L87.1299 127.991L86.8334 128.683ZM103.925 124.279C102.75 124.637 101.524 124.966 100.338 125.284C101.524 124.966 102.709 124.648 103.925 124.279C104.334 124.169 104.751 123.926 105.157 123.642C104.751 123.926 104.334 124.169 103.925 124.279Z" fill="#9C9FA7"/>
<path d="M206.377 93.8931C206.228 94.1521 206.067 94.3703 205.906 94.5884C206.056 94.3294 206.217 94.1112 206.377 93.8931Z" fill="white"/>
<path fill-rule="evenodd" clip-rule="evenodd" d="M75.9525 190.443C76.1386 191.138 76.3655 191.821 76.7151 192.472C77.1603 193.316 77.6654 194.056 78.2932 194.764C80.5421 197.27 83.7576 198.641 87.2252 198.5C87.2252 198.5 87.7406 198.625 97.3887 196.039C107.007 193.506 106.26 193.662 106.98 193.732C108.182 193.804 109.252 194.525 109.885 195.581C110.128 195.997 110.325 196.733 110.323 197.215C110.324 198.528 109.636 199.719 108.437 200.478L108.173 200.637L83.7363 207.228L83.4311 207.398C82.0688 208.2 81.3423 209.577 81.521 211.062L81.7946 212.083C82.1362 212.867 82.8567 213.594 83.6012 213.92C84.2013 214.197 84.8502 214.329 85.4445 214.258C85.7007 214.233 111.865 207.222 110.434 207.605C113.056 206.596 115.061 204.921 116.408 202.59C117.575 200.569 118.042 198.386 117.849 196.03C117.81 195.559 117.755 195.355 117.504 194.415C117.197 193.271 117.069 192.955 116.686 192.182C115.52 189.955 113.591 188.152 111.172 187.136C110.582 186.9 109.715 186.607 108.984 186.496C107.779 186.25 106.803 186.205 105.481 186.34L104.835 186.382L95.9937 188.707L87.4793 190.945C87.2749 191 87.0595 191.014 86.8033 191.039C85.4375 191.01 84.2045 190.334 83.5601 189.237C83.317 188.82 83.0762 187.922 83.0784 187.439C83.1209 186.29 83.6977 185.172 84.6512 184.479C85.1988 184.069 85.1988 184.069 89.9002 182.809C92.2713 182.174 94.1928 181.659 94.1928 181.659C94.1928 181.659 94.0373 181.569 93.8709 181.439C93.1343 180.98 92.4657 180.283 92.0205 179.439C91.8183 179.012 91.5666 178.072 91.5279 177.601C91.4915 176.647 91.6515 175.773 92.1195 174.903L92.2882 174.551L83.9592 176.827C82.8554 177.122 81.7545 177.593 80.7792 178.204C78.605 179.575 76.955 181.593 76.1123 184.008C75.6121 185.412 75.4499 186.769 75.5249 188.194C75.6621 189.033 75.7664 189.749 75.9525 190.443Z" fill="#9C9FA7"/>
<path fill-rule="evenodd" clip-rule="evenodd" d="M95.5315 173.901C94.1663 174.53 93.3361 175.847 93.3404 177.334C93.3571 177.724 93.5242 178.511 93.7563 178.886C94.4037 180.158 95.6476 180.875 97.2288 180.889C97.4959 180.905 98.3545 180.675 110.088 177.531L122.69 174.198L123.284 174.127C123.622 174.08 124.146 174.071 124.536 174.054C129.124 174.007 133.254 176.666 134.986 180.842C135.232 181.433 135.583 182.741 135.676 183.416C135.934 185.361 135.65 187.407 134.869 189.236C134.622 189.784 134.034 190.861 133.642 191.36C132.869 192.399 132 193.245 130.965 193.96C129.97 194.665 128.87 195.135 127.695 195.493C126.959 195.691 125.866 196.027 124.19 196.476L119.868 197.678L119.835 198.212C119.725 199.599 119.377 200.918 118.784 202.303C118.507 202.903 117.669 204.353 117.247 204.904C117.045 205.133 116.724 205.57 116.482 205.81L116.079 206.268L129.477 202.634C131.521 202.086 133.437 201.223 135.183 200.054C136.482 199.181 137.686 198.114 138.724 196.917C139.258 196.292 139.791 195.667 140.15 195.046C140.562 194.454 141.37 193.055 141.617 192.507C141.756 192.207 141.876 192 141.876 192C141.876 192 142.042 192.131 142.209 192.261C144.702 194.045 147.781 195.234 150.857 195.592C152.708 195.796 154.453 195.767 156.295 195.448C156.295 195.448 159.209 194.711 159.443 194.605C160.841 194.099 162.348 193.345 163.648 192.471C165.506 191.229 167.042 189.767 168.316 187.98C171.076 184.22 172.211 179.625 171.612 175.1C171.555 174.722 171.497 174.343 171.475 174.261L171.432 174.098C171.421 174.057 171.41 174.016 171.399 173.976C171.103 172.873 167.108 157.962 167.097 157.921C166.862 157.371 166.423 156.876 165.975 156.514C165.039 155.802 163.815 155.648 162.67 155.955C162.629 155.966 162.629 155.966 162.589 155.977C161.455 156.325 160.523 157.1 160.11 158.173C160.031 158.37 159.963 158.607 159.925 158.792C159.754 159.626 159.554 158.716 161.973 167.744C164.176 176.13 164.111 175.885 164.199 176.868C164.429 180.178 162.965 183.547 160.271 185.758C159.127 186.721 157.855 187.368 156.353 187.814C155.506 188.085 155.004 188.176 154.143 188.232C151.826 188.415 149.497 187.9 147.516 186.723C145.899 185.756 144.613 184.393 143.734 182.746C143.311 181.983 143.149 181.545 142.714 180.085C142.312 178.748 142.107 178.146 141.692 177.251C140.34 174.329 138.161 171.76 135.379 169.879C134.206 169.099 132.632 168.295 131.228 167.795C128.945 166.962 126.526 166.603 124.095 166.685C122.617 166.731 121.153 166.992 119.723 167.375L95.5315 173.901ZM134.206 163.538C133.429 163.746 132.718 164.2 132.184 164.824C131.893 165.209 131.653 165.623 131.588 166.035L131.55 166.22L131.788 166.288C132.128 166.415 133.203 166.828 133.659 167.056C134.351 167.352 136.083 168.421 136.727 168.861C138.089 169.853 139.194 170.871 140.261 172.074L140.638 172.498L139.74 169.148C139.16 166.983 138.81 165.676 138.725 165.524C138.372 164.699 137.715 164.043 136.918 163.687C136.122 163.331 135.239 163.305 134.421 163.524L134.217 163.579L134.206 163.538Z" fill="#9C9FA7"/>
<path fill-rule="evenodd" clip-rule="evenodd" d="M155.192 169.255C157.097 176.363 157.196 176.731 157.19 177.038C157.241 178.207 156.775 179.251 155.844 180.026C155.348 180.466 155.114 180.572 154.337 180.78C153.765 180.934 153.642 180.966 153.334 180.961C152.102 180.941 151.035 180.395 150.353 179.484C149.881 178.866 150.009 179.182 148.28 172.727L146.725 166.926L147.112 166.735C147.733 166.437 148.281 166.028 148.888 165.515C149.455 165.013 149.828 164.606 150.228 163.974C150.92 162.957 151.42 161.553 151.492 160.351C151.519 160.125 151.557 159.94 151.557 159.94C151.557 159.94 151.702 159.989 151.816 160.089C152.357 160.47 152.733 160.895 153.009 161.434C153.189 161.779 153.321 162.27 155.192 169.255Z" fill="#9C9FA7"/>
<path fill-rule="evenodd" clip-rule="evenodd" d="M193.498 185.48L188.96 186.696C188.183 186.904 187.406 186.455 187.198 185.679L178.485 153.162C178.277 152.386 178.726 151.609 179.503 151.401L184.041 150.185C184.817 149.977 185.595 150.425 185.803 151.202L194.516 183.718C194.683 184.506 194.234 185.283 193.498 185.48Z" fill="#9C9FA7"/>
<path fill-rule="evenodd" clip-rule="evenodd" d="M209.78 159.576L206.08 145.768C205.872 144.992 205.095 144.544 204.318 144.752L199.78 145.968C199.003 146.176 198.554 146.953 198.762 147.729L207.475 180.246C207.683 181.022 208.461 181.471 209.237 181.262L218.599 178.754C224.159 177.264 227.452 171.566 225.963 166.01C224.475 160.454 218.774 157.166 213.214 158.655L209.78 159.576ZM216.651 171.482L213.217 172.403L211.728 166.847L215.162 165.927C216.675 165.522 218.271 166.407 218.687 167.96C219.092 169.471 218.204 171.066 216.651 171.482Z" fill="#9C9FA7"/>
<path fill-rule="evenodd" clip-rule="evenodd" d="M206.118 180.741L201.492 183.425C200.963 183.742 200.293 183.528 199.987 183.041L190.674 166.928C190.357 166.4 190.572 165.73 191.06 165.424L195.686 162.739C196.215 162.422 196.886 162.637 197.191 163.124L206.504 179.237C206.821 179.765 206.647 180.424 206.118 180.741Z" fill="#9C9FA7"/>
<path fill-rule="evenodd" clip-rule="evenodd" d="M130.87 183.303L119.258 180.197L122.367 191.798L130.87 183.303Z" fill="#9C9FA7"/>
</g>
<defs>
<clipPath id="clip0">
<rect width="220" height="220" fill="white" transform="translate(0 56.9402) rotate(-15)"/>
</clipPath>
</defs>
</svg>
